<svg width="312" height="111" viewBox="0 0 312 111" fill="none" xmlns="http://www.w3.org/2000/svg">
<path d="M0 0V102.954H74.8763V0H0ZM41.3309 48.314C43.4752 50.4619 43.4752 53.9517 41.3309 56.096C40.2907 57.1362 38.9097 57.7077 37.4399 57.7077C35.9701 57.7077 34.5891 57.1362 33.5489 56.096C31.4047 53.9517 31.4047 50.4619 33.5489 48.314C33.872 47.991 34.2306 47.7105 34.6175 47.4797C34.6708 47.4478 34.724 47.4194 34.7773 47.3874C35.5832 46.9401 36.492 46.7023 37.4399 46.7023C38.3878 46.7023 39.2966 46.9401 40.1025 47.3874C40.1558 47.4194 40.209 47.4478 40.2623 47.4797C40.6492 47.7105 41.0078 47.991 41.3309 48.314ZM24.0878 29.3669C24.0878 29.3669 24.0807 29.3704 24.0771 29.374C23.2997 29.7929 22.4086 30.0307 21.4642 30.0307C18.4288 30.0307 15.9615 27.5634 15.9615 24.528C15.9615 21.4926 18.4288 19.0253 21.4642 19.0253C24.4996 19.0253 26.967 21.4926 26.967 24.528C26.967 26.6155 25.8025 28.4332 24.0878 29.3669ZM25.5611 34.4791C26.6013 33.4389 27.9823 32.8673 29.4521 32.8673C30.9218 32.8673 32.3028 33.4389 33.343 34.4791C35.4873 36.6234 35.4873 40.1167 33.343 42.261C33.0164 42.5876 32.6614 42.8645 32.2815 43.0917C32.2105 43.1273 32.136 43.1699 32.065 43.2125C29.981 44.3343 27.3184 44.0183 25.5611 42.261C23.4168 40.1167 23.4168 36.6234 25.5611 34.4791ZM42.8148 43.2125C42.7438 43.1699 42.6693 43.1273 42.5983 43.0917C42.2184 42.8645 41.8634 42.5876 41.5368 42.261C39.3925 40.1167 39.3925 36.6234 41.5368 34.4791C42.577 33.4389 43.958 32.8673 45.4278 32.8673C46.8975 32.8673 48.2785 33.4389 49.3187 34.4791C51.463 36.6234 51.463 40.1167 49.3187 42.261C47.5614 44.0183 44.8988 44.3343 42.8148 43.2125ZM50.8027 29.374C50.8027 29.374 50.7956 29.3669 50.792 29.3669C49.0773 28.4332 47.9129 26.6155 47.9129 24.528C47.9129 21.4926 50.3802 19.0253 53.4156 19.0253C56.451 19.0253 58.9183 21.4926 58.9183 24.528C58.9183 27.5634 56.451 30.0307 53.4156 30.0307C52.4713 30.0307 51.5802 29.7929 50.8027 29.374ZM40.0635 29.3669C40.0635 29.3669 40.0564 29.3704 40.0528 29.374C39.2753 29.7929 38.3842 30.0307 37.4399 30.0307C36.4956 30.0307 35.6045 29.7929 34.827 29.374C34.8234 29.3704 34.8199 29.3669 34.8163 29.3669C33.1016 28.4332 31.9372 26.6155 31.9372 24.528C31.9372 21.4926 34.4045 19.0253 37.4399 19.0253C40.4753 19.0253 42.9426 21.4926 42.9426 24.528C42.9426 26.6155 41.7782 28.4332 40.0635 29.3669ZM4.97021 74.397C7.95234 73.8041 11.0374 73.4917 14.1935 73.4917C20.5412 73.4917 26.5977 74.752 32.1324 77.0347C30.2402 78.2738 28.4332 79.6335 26.7256 81.1068C22.7707 79.85 18.5602 79.1719 14.1935 79.1719C11.0232 79.1719 7.93814 79.527 4.97021 80.205V74.397ZM4.97021 85.3208C7.91684 84.5504 11.009 84.1422 14.1935 84.1422C17.0691 84.1422 19.8667 84.4759 22.5506 85.1078C21.0737 86.6876 19.6927 88.3597 18.4217 90.1135C17.0407 89.9218 15.6278 89.8224 14.1935 89.8224C10.9842 89.8224 7.88489 90.3159 4.97021 91.2318V85.3208ZM14.1935 94.7926C14.5876 94.7926 14.9816 94.8033 15.3722 94.821C14.7793 95.8541 14.2219 96.9085 13.7 97.9842H4.97021V96.4896C7.83519 95.3926 10.9451 94.7926 14.1935 94.7926ZM69.9061 97.9842H48.2253C48.3992 97.8848 48.5767 97.7889 48.7578 97.6966C50.4619 96.8127 52.276 96.1097 54.1753 95.6163C55.8865 95.1725 57.6651 94.9027 59.4935 94.821C59.884 94.8033 60.278 94.7926 60.6757 94.7926C63.9276 94.7926 67.0375 95.3926 69.9061 96.4931V97.9842ZM69.9061 91.2318C66.9914 90.3159 63.8921 89.8224 60.6757 89.8224C59.2414 89.8224 57.8284 89.9218 56.4439 90.1135C54.6191 90.362 52.844 90.7738 51.1328 91.3348C49.2406 91.9454 47.43 92.7406 45.7189 93.6921C44.2527 94.5086 42.8574 95.4387 41.551 96.4754C40.9404 96.9547 40.351 97.4588 39.7795 97.9842H32.0472C32.4555 97.4694 32.878 96.9653 33.3182 96.4754C34.582 95.0447 35.9595 93.7134 37.4364 92.4992C38.7499 91.4129 40.1416 90.4153 41.6007 89.5242C43.3154 88.4698 45.1224 87.5539 47.0111 86.7941C48.7187 86.0983 50.4938 85.5338 52.3186 85.1078C55.0025 84.4759 57.8 84.1422 60.6757 84.1422C63.8637 84.1422 66.9559 84.5504 69.9061 85.3244V91.2318ZM69.9061 80.205C66.9346 79.5305 63.8459 79.1719 60.6757 79.1719C56.309 79.1719 52.0985 79.85 48.1401 81.1068C46.3188 81.6819 44.5473 82.3848 42.8432 83.1978C40.9581 84.096 39.1475 85.1362 37.4328 86.3006C35.9772 87.284 34.5856 88.3633 33.2685 89.5242C31.7987 90.8129 30.4213 92.2081 29.1503 93.6921C28.0569 94.963 27.0415 96.3014 26.1114 97.7002C26.0439 97.7925 25.9836 97.8883 25.9232 97.9842H19.2951C19.7353 97.1819 20.2039 96.3902 20.6903 95.6163C21.6275 94.1323 22.6429 92.7016 23.7363 91.3348C25.0073 89.7336 26.3847 88.2142 27.858 86.7941C29.1752 85.5161 30.5668 84.3161 32.0259 83.1978C33.7406 81.8878 35.5477 80.6879 37.4364 79.6193C39.1404 78.6501 40.9084 77.7874 42.7332 77.0347C48.2679 74.752 54.328 73.4917 60.6757 73.4917C63.8353 73.4917 66.9204 73.8041 69.9061 74.397V80.205ZM60.6757 68.5215C52.3292 68.5215 44.4373 70.4883 37.4328 73.9887C30.4319 70.4883 22.5364 68.5215 14.1935 68.5215C11.0481 68.5215 7.96654 68.8019 4.97021 69.338V4.97021H34.9548V14.3533C32.7715 14.8858 30.8544 16.1035 29.4521 17.7685C27.535 15.4964 24.6665 14.0551 21.4642 14.0551C15.6881 14.0551 10.9913 18.7519 10.9913 24.528C10.9913 29.6686 14.7118 33.9537 19.6004 34.8305C18.2762 38.5263 19.0927 42.8219 22.0464 45.7757C23.6121 47.3413 25.5575 48.3069 27.5882 48.669C26.264 52.3647 27.0806 56.6569 30.0343 59.6106C32.0117 61.5916 34.6424 62.6779 37.4399 62.6779C40.2374 62.6779 42.8681 61.5916 44.8455 59.6106C47.7993 56.6569 48.6158 52.3647 47.2916 48.669C47.9981 48.5448 48.6939 48.3424 49.3684 48.0726C50.6323 47.5614 51.8109 46.7946 52.8334 45.7757C55.7871 42.8219 56.6036 38.5263 55.2794 34.8305C60.168 33.9537 63.8885 29.6686 63.8885 24.528C63.8885 18.7519 59.1917 14.0551 53.4156 14.0551C50.2134 14.0551 47.3448 15.4964 45.4278 17.7685C44.0254 16.1035 42.1084 14.8858 39.925 14.3533V4.97021H69.9061V69.338C66.9097 68.8019 63.8246 68.5215 60.6757 68.5215Z" fill="#FBF8F2"/>
<path d="M271.739 87.2236C271.903 87.6603 272.077 88.0934 272.265 88.5194C272.08 88.0934 271.903 87.6603 271.739 87.2236ZM273.56 91.1217C273.681 91.3418 273.805 91.5655 273.944 91.782C273.813 91.5655 273.685 91.3454 273.56 91.1217Z" fill="#FBF8F2"/>
<path d="M311.717 107.765L309.882 103.022C309.882 103.022 309.868 103.029 309.861 103.029C308.408 103.668 306.559 104.335 304.354 104.804C301.997 105.304 299.909 105.436 298.252 105.425H298.212C297.669 105.425 297.13 105.407 296.594 105.379C296.086 105.35 295.585 105.308 295.085 105.255C295.074 105.255 295.063 105.255 295.053 105.255C294.819 105.23 294.584 105.201 294.35 105.169C293.903 105.109 293.459 105.042 293.019 104.963C293.011 104.963 293.004 104.963 292.997 104.963C292.791 104.924 292.582 104.885 292.38 104.843C290.31 104.424 288.343 103.788 286.497 102.961C283.032 101.413 279.99 99.198 277.487 96.5035C277.21 96.2088 276.943 95.907 276.681 95.5982C275.797 94.5615 274.987 93.461 274.26 92.3036C274.153 92.1403 274.054 91.9735 273.954 91.8066C273.954 91.7995 273.947 91.796 273.944 91.7889C273.805 91.5723 273.681 91.3487 273.56 91.1285C273.432 90.9013 273.305 90.6741 273.184 90.4434C273.102 90.2872 273.024 90.1345 272.946 89.9783C272.868 89.8221 272.79 89.6694 272.715 89.5097C272.669 89.4138 272.623 89.318 272.577 89.2186C272.474 89.002 272.374 88.7819 272.279 88.5618C272.275 88.5511 272.271 88.5405 272.264 88.5263C272.076 88.1003 271.902 87.6671 271.739 87.2305C271.657 87.0104 271.576 86.7903 271.501 86.5701C271.423 86.3465 271.348 86.1264 271.277 85.9027C273.159 84.6957 274.533 83.0661 275.449 81.2059C275.477 81.1526 275.502 81.0994 275.527 81.0461C276.464 79.0971 276.901 76.8889 276.901 74.6239C276.901 73.0405 276.699 71.4785 276.251 70.0122C276.212 69.888 276.173 69.7673 276.134 69.6466C275.488 67.7188 274.405 65.9651 272.815 64.5628C272.797 64.5486 272.779 64.5308 272.761 64.5166C271.469 63.3699 269.847 62.4575 267.852 61.8504C267.756 61.822 267.66 61.7936 267.564 61.7652C265.846 61.2718 263.861 61.002 261.586 61.002H253.715V96.5035H259.64V88.2387H262.324C263.648 88.2387 264.845 88.1109 265.959 87.9405C265.974 87.9405 265.988 87.9405 266.002 87.9334C266.623 89.7156 267.674 92.2788 269.446 95.1367C269.446 95.1367 269.868 95.8254 270.337 96.5035C270.362 96.5425 270.39 96.5851 270.418 96.6242C272.048 98.9673 273.976 101.101 276.155 102.961C281.956 107.928 289.568 110.988 298.252 110.995H298.294C303.144 110.995 307.667 110.033 311.717 108.322C311.76 108.308 311.799 108.29 311.838 108.276C311.859 108.265 311.881 108.258 311.902 108.247L311.717 107.772V107.765ZM269.971 78.9941C269.971 78.9941 269.957 79.019 269.95 79.0296C268.892 80.7089 267.131 81.8697 264.703 82.2958C264.656 82.3029 264.61 82.3135 264.564 82.3171C263.922 82.4271 263.233 82.4804 262.498 82.4804H259.64V66.7887H262.498C263.591 66.7887 264.596 66.9059 265.494 67.1331C265.579 67.1508 265.661 67.1757 265.743 67.197C268.05 67.8395 269.655 69.2277 270.479 71.1944C270.489 71.2228 270.5 71.2477 270.511 71.2761C270.905 72.2524 271.111 73.3742 271.111 74.6168C271.111 76.2925 270.727 77.7835 269.971 78.9941Z" fill="#FBF8F2"/>
<path d="M119.555 61.041L110.211 88.0577L100.561 61.041H94.2456L106.923 96.4964L106.966 96.6171H113.413L113.455 96.4964L125.831 61.041H119.555Z" fill="#FBF8F2"/>
<path d="M130.55 61.041V96.6171H136.521V61.041H130.55Z" fill="#FBF8F2"/>
<path d="M164.4 60.998V85.8953L150.033 61.0406H144.019V96.6167H149.99V71.5881L164.415 96.496L164.486 96.6167H170.368V60.998H164.4Z" fill="#FBF8F2"/>
<path d="M212.864 77.8295H192.184V83.0589H205.898C204.471 87.9013 199.842 91.3592 194.477 91.3592C187.079 91.3592 181.842 85.6967 181.842 78.7384C181.842 71.7801 187.122 66.114 194.52 66.114C199.668 66.114 203.995 69.3127 205.465 73.7646H212.26C210.698 67.8004 206.136 62.8479 199.962 60.9841C198.262 60.4728 196.437 60.1924 194.52 60.1924C192.603 60.1924 190.746 60.4693 189.032 60.9841C181.214 63.3236 176.002 70.5659 176.002 78.6496C176.002 86.7333 181.431 94.3164 189.521 96.4962C191.094 96.9223 192.766 97.1495 194.52 97.1495C196.274 97.1495 197.914 96.9223 199.476 96.4962C207.783 94.2454 213.375 86.4529 212.864 77.8295Z" fill="#FBF8F2"/>
<path d="M247.253 96.4963L234.536 62.8302C235.179 62.3226 235.704 61.6942 236.091 60.9841C236.599 60.0647 236.872 59.0209 236.872 57.9452C236.872 54.6187 234.235 51.6792 230.557 51.6792C226.879 51.6792 224.284 54.6187 224.284 57.9452C224.284 59.0351 224.557 60.0753 225.054 60.9841C225.48 61.7723 226.073 62.461 226.794 63.0042L213.86 96.4963V96.5034H220.087V96.4963L222.033 91.2705H239.255L241.154 96.4963V96.5034H247.257V96.4963H247.253ZM230.557 55.6128C231.899 55.6128 232.893 56.6068 232.893 57.9452C232.893 59.2836 231.899 60.2812 230.557 60.2812C229.215 60.2812 228.221 59.241 228.221 57.9452C228.221 56.6494 229.257 55.6128 230.557 55.6128ZM223.936 86.2151L230.731 67.9318L237.394 86.2151H223.936Z" fill="#FBF8F2"/>
<path d="M311.717 75.7277C310.72 68.0984 305.618 61.9886 295.5 60.9839C294.538 60.8881 293.53 60.8384 292.476 60.8384H285.723V96.5032H292.476C292.696 96.5032 292.916 96.5032 293.132 96.4961C294.219 96.4748 295.248 96.4003 296.235 96.2724C296.583 96.2298 296.927 96.1766 297.265 96.1198H297.272C300.808 95.5127 303.659 94.224 305.87 92.4418C307.51 91.1247 308.803 89.5343 309.761 87.7521C310.78 85.8528 311.426 83.7369 311.717 81.4967C311.842 80.5559 311.902 79.5903 311.902 78.6104C311.902 77.6306 311.842 76.6685 311.717 75.7277ZM293.125 90.5354H291.652V66.7636H293.125C301.82 66.7636 305.931 71.8616 305.931 78.6104C305.931 85.3593 301.82 90.5354 293.125 90.5354Z" fill="#FBF8F2"/>
<path d="M114.009 6.44336H107.85L94.2456 41.6147H100.405L102.329 36.4457H119.356L121.237 41.6147H127.269L114.009 6.44336ZM104.211 31.4435L110.928 13.3662L117.517 31.4435H104.211Z" fill="#FBF8F2"/>
<path d="M150.541 31.0171C154.389 28.5391 156.1 24.3074 156.1 19.8626C156.1 12.8546 152.039 6.40039 140.959 6.40039H133.173V41.657H139.031V33.3247H141.687C143.011 33.3247 144.211 33.1969 145.322 33.023L149.426 41.6144H156.445L150.541 31.0171ZM141.857 27.641H139.031V12.1268H141.857C147.331 12.1268 150.37 15.077 150.37 19.8626C150.37 24.6482 147.417 27.641 141.857 27.641Z" fill="#FBF8F2"/>
<path d="M163.534 6.44336V41.6147H169.438V6.44336H163.534Z" fill="#FBF8F2"/>
<path d="M182.389 36.0158V6.40039H176.528V41.6144H194.151V36.0158H182.389Z" fill="#FBF8F2"/>
<path d="M206.597 6.35791H199.923V41.6145H206.597C219.942 41.6145 225.803 33.4953 225.803 23.9241C225.803 14.3529 219.942 6.35791 206.597 6.35791ZM207.236 35.7177H205.784V12.2121H207.236C215.835 12.2121 219.9 17.2569 219.9 23.9241C219.9 30.5912 215.835 35.7177 207.236 35.7177Z" fill="#FBF8F2"/>
<path d="M244.705 20.374C241.453 19.2628 238.975 18.3256 238.975 15.2902C238.975 12.8122 240.814 11.0158 243.722 11.0158C247.102 11.0158 248.813 13.2808 248.855 16.4866L254.5 16.5718C254.461 10.0324 250.354 5.67285 243.722 5.67285C237.648 5.67285 233.199 9.90463 233.199 15.205C233.199 20.8462 237.005 23.5372 242.611 25.3762C246.889 26.7856 249.924 27.8116 249.924 31.486C249.924 34.6066 247.485 36.829 243.807 36.829C239.657 36.829 237.435 33.964 237.349 30.247H231.573C231.609 35.8207 234.673 40.0987 239.625 41.6146C240.899 42.0051 242.302 42.2146 243.807 42.2146C245.312 42.2146 246.793 42.0087 248.117 41.6146C252.761 40.2442 255.87 36.5947 255.87 31.5712C255.87 24.1372 250.481 22.3408 244.705 20.374Z" fill="#FBF8F2"/>
</svg>
