<svg width="120" height="50" viewBox="0 0 120 50" fill="none" xmlns="http://www.w3.org/2000/svg">
<g id="Layer_1">
<path id="Vector" d="M89.1293 40.1299V40.1323H91.2157V40.1299H89.1293ZM79.797 40.1323H81.9271V40.1299H79.7982V40.1323H79.797ZM73.1858 40.3558C73.7781 40.3558 74.3461 40.2772 74.8802 40.1299H71.4769C72.0145 40.2772 72.5862 40.3558 73.1858 40.3558ZM62.9177 40.1716H64.9288V40.1299H62.8934L62.9177 40.1716ZM55.9205 40.1716H57.962V40.1299H55.9205V40.1716ZM51.3156 40.1716H53.3571V40.1299H51.3156V40.1716ZM43.2528 40.1716H45.457L45.4715 40.1299H43.2383L43.2528 40.1716Z" fill="#D1D3D4"/>
<g id="Group">
<g id="Group_2">
<path id="Vector_2" d="M99.5879 36.9229C99.6437 37.0739 99.7032 37.2236 99.7675 37.371C99.7044 37.2236 99.6437 37.0739 99.5879 36.9229ZM100.211 38.2709C100.252 38.347 100.294 38.4243 100.342 38.4992C100.297 38.4243 100.253 38.3482 100.211 38.2709Z" fill="black"/>
<path id="Vector_3" d="M113.256 44.0268L112.628 42.3865C112.628 42.3865 112.623 42.389 112.621 42.389C112.124 42.61 111.492 42.8408 110.738 43.0029C109.932 43.176 109.219 43.2214 108.652 43.2177H108.639C108.453 43.2177 108.268 43.2116 108.085 43.2017C107.912 43.1919 107.74 43.1772 107.569 43.1588C107.566 43.1588 107.562 43.1588 107.558 43.1588C107.478 43.1502 107.398 43.1404 107.318 43.1293C107.165 43.1084 107.013 43.0851 106.863 43.0581C106.861 43.0581 106.858 43.0581 106.856 43.0581C106.785 43.0446 106.714 43.0311 106.644 43.0164C105.937 42.8715 105.264 42.6517 104.633 42.3657C103.449 41.8304 102.409 41.0643 101.553 40.1325C101.458 40.0306 101.367 39.9262 101.277 39.8194C100.975 39.4609 100.698 39.0803 100.45 38.6801C100.413 38.6236 100.379 38.5659 100.345 38.5082C100.345 38.5058 100.343 38.5046 100.342 38.5021C100.294 38.4272 100.252 38.3499 100.211 38.2737C100.167 38.1952 100.123 38.1166 100.082 38.0368C100.054 37.9828 100.027 37.93 100.001 37.876C99.9738 37.822 99.9471 37.7692 99.9217 37.7139C99.9059 37.6808 99.8901 37.6476 99.8743 37.6132C99.8391 37.5384 99.8051 37.4622 99.7724 37.3861C99.7712 37.3824 99.7699 37.3788 99.7675 37.3738C99.7032 37.2265 99.6437 37.0767 99.5879 36.9257C99.56 36.8496 99.532 36.7735 99.5066 36.6974C99.4799 36.62 99.4544 36.5439 99.4301 36.4666C100.073 36.0492 100.543 35.4856 100.856 34.8423C100.866 34.8239 100.874 34.8055 100.883 34.7871C101.203 34.1131 101.353 33.3494 101.353 32.5662C101.353 32.0186 101.283 31.4784 101.131 30.9714C101.117 30.9284 101.104 30.8867 101.09 30.8449C100.87 30.1783 100.499 29.5718 99.9556 29.0869C99.9496 29.0819 99.9435 29.0758 99.9374 29.0709C99.4956 28.6743 98.941 28.3588 98.2588 28.1489C98.2261 28.1391 98.1933 28.1292 98.1605 28.1194C97.5731 27.9488 96.8946 27.8555 96.1166 27.8555H93.4258V40.1325H95.4515V37.2744H96.3691C96.8218 37.2744 97.2308 37.2302 97.6119 37.1713C97.6168 37.1713 97.6216 37.1713 97.6265 37.1688C97.8389 37.7851 98.1982 38.6715 98.8038 39.6598C98.8038 39.6598 98.9482 39.898 99.1085 40.1325C99.1169 40.146 99.1267 40.1607 99.1364 40.1742C99.6935 40.9845 100.353 41.7224 101.098 42.3657C103.081 44.0832 105.683 45.1415 108.652 45.144H108.667C110.325 45.144 111.871 44.8113 113.256 44.2195C113.27 44.2146 113.284 44.2085 113.297 44.2035C113.304 44.1999 113.311 44.1974 113.319 44.1937L113.256 44.0292V44.0268ZM98.9834 34.0775C98.9834 34.0775 98.9786 34.0861 98.9762 34.0897C98.6145 34.6704 98.0125 35.0719 97.1823 35.2192C97.1665 35.2217 97.1507 35.2254 97.1349 35.2266C96.9152 35.2646 96.6798 35.2831 96.4285 35.2831H95.4515V29.8566H96.4285C96.8024 29.8566 97.1459 29.8971 97.4529 29.9757C97.4821 29.9818 97.51 29.9904 97.5379 29.9978C98.3268 30.22 98.8754 30.7001 99.157 31.3802C99.1606 31.39 99.1643 31.3986 99.1679 31.4084C99.3026 31.7461 99.373 32.134 99.373 32.5637C99.373 33.1432 99.242 33.6588 98.9834 34.0775Z" fill="black"/>
<path id="Vector_4" d="M47.5589 27.8687L44.3644 37.2115L41.0655 27.8687H38.9062L43.2405 40.1297L43.255 40.1715H45.4592L45.4737 40.1297L49.7048 27.8687H47.5589Z" fill="black"/>
<path id="Vector_5" d="M51.3184 27.8687V40.1715H53.3598V27.8687H51.3184Z" fill="black"/>
<path id="Vector_6" d="M62.8899 27.854V36.4639L57.9779 27.8687H55.9219V40.1715H57.9634V31.5162L62.8947 40.1298L62.919 40.1715H64.9302V27.854H62.8899Z" fill="black"/>
<path id="Vector_7" d="M79.4595 33.6744H72.3896V35.4828H77.0782C76.5903 37.1574 75.0076 38.3532 73.1737 38.3532C70.6442 38.3532 68.854 36.395 68.854 33.9887C68.854 31.5824 70.6588 29.623 73.1882 29.623C74.9481 29.623 76.4277 30.7292 76.9301 32.2687H79.2532C78.7192 30.2062 77.1595 28.4935 75.0489 27.849C74.4675 27.6722 73.8436 27.5752 73.1882 27.5752C72.5328 27.5752 71.898 27.671 71.3118 27.849C68.6392 28.658 66.8574 31.1625 66.8574 33.958C66.8574 36.7535 68.7132 39.3759 71.4793 40.1297C72.017 40.277 72.5886 40.3556 73.1882 40.3556C73.7878 40.3556 74.3485 40.277 74.8826 40.1297C77.7227 39.3513 79.6343 36.6565 79.4595 33.6744Z" fill="black"/>
<path id="Vector_8" d="M91.2171 40.1299L86.8695 28.4876C87.0892 28.312 87.2689 28.0947 87.4011 27.8492C87.5747 27.5312 87.6682 27.1702 87.6682 26.7982C87.6682 25.6479 86.7664 24.6313 85.5089 24.6313C84.2515 24.6313 83.3643 25.6479 83.3643 26.7982C83.3643 27.1751 83.4577 27.5349 83.6277 27.8492C83.7733 28.1217 83.976 28.3599 84.2224 28.5477L79.8008 40.1299V40.1323H81.9297V40.1299L82.5948 38.3227H88.4826L89.1319 40.1299V40.1323H91.2183V40.1299H91.2171ZM85.5089 25.9916C85.9677 25.9916 86.3076 26.3354 86.3076 26.7982C86.3076 27.2611 85.9677 27.6061 85.5089 27.6061C85.0502 27.6061 84.7103 27.2464 84.7103 26.7982C84.7103 26.3501 85.0647 25.9916 85.5089 25.9916ZM83.2453 36.5744L85.5684 30.2518L87.8466 36.5744H83.2453Z" fill="black"/>
<path id="Vector_9" d="M113.256 32.9478C112.915 30.3095 111.171 28.1966 107.712 27.8492C107.383 27.816 107.038 27.7988 106.678 27.7988H104.369V40.1323H106.678C106.753 40.1323 106.828 40.1323 106.902 40.1299C107.274 40.1225 107.626 40.0967 107.963 40.0525C108.082 40.0378 108.2 40.0194 108.315 39.9997H108.317C109.526 39.7898 110.501 39.3441 111.257 38.7278C111.818 38.2724 112.26 37.7223 112.587 37.106C112.936 36.4492 113.157 35.7175 113.256 34.9428C113.299 34.6175 113.319 34.2835 113.319 33.9447C113.319 33.6059 113.299 33.2732 113.256 32.9478ZM106.9 38.0686H106.396V29.8479H106.9C109.872 29.8479 111.278 31.6108 111.278 33.9447C111.278 36.2786 109.872 38.0686 106.9 38.0686Z" fill="black"/>
</g>
<g id="Group_3">
<path id="Vector_10" d="M45.6631 8.98828H43.5573L38.9062 21.1511H41.0121L41.6699 19.3636H47.4909L48.1342 21.1511H50.1963L45.6631 8.98828ZM42.3132 17.6338L44.6096 11.3823L46.8622 17.6338H42.3132Z" fill="black"/>
<path id="Vector_11" d="M58.1524 17.4865C59.4681 16.6296 60.0531 15.1662 60.0531 13.6291C60.0531 11.2056 58.6646 8.97363 54.8765 8.97363H52.2148V21.1659H54.2175V18.2845H55.1254C55.5781 18.2845 55.9883 18.2403 56.3682 18.1802L57.7713 21.1512H60.1708L58.1524 17.4865ZM55.1836 16.319H54.2175V10.9539H55.1836C57.0552 10.9539 58.0941 11.9741 58.0941 13.6291C58.0941 15.284 57.0843 16.319 55.1836 16.319Z" fill="black"/>
<path id="Vector_12" d="M62.5938 8.98828V21.1511H64.6122V8.98828H62.5938Z" fill="black"/>
<path id="Vector_13" d="M69.041 19.2151V8.97363H67.0371V21.1512H73.0621V19.2151H69.041Z" fill="black"/>
<path id="Vector_14" d="M77.317 8.9585H75.0352V21.1508H77.317C81.8794 21.1508 83.8832 18.343 83.8832 15.0332C83.8832 11.7233 81.8794 8.9585 77.317 8.9585ZM77.5354 19.1116H77.039V10.983H77.5354C80.4751 10.983 81.8648 12.7275 81.8648 15.0332C81.8648 17.3388 80.4751 19.1116 77.5354 19.1116Z" fill="black"/>
<path id="Vector_15" d="M90.345 13.8056C89.2333 13.4213 88.3861 13.0972 88.3861 12.0475C88.3861 11.1906 89.0148 10.5694 90.0088 10.5694C91.1643 10.5694 91.7493 11.3526 91.7639 12.4613L93.6937 12.4907C93.6804 10.2293 92.2761 8.72168 90.0088 8.72168C87.9322 8.72168 86.4114 10.1851 86.4114 12.0181C86.4114 13.9689 87.7125 14.8995 89.6289 15.5354C91.0915 16.0228 92.1292 16.3776 92.1292 17.6483C92.1292 18.7275 91.2954 19.496 90.038 19.496C88.6191 19.496 87.8593 18.5052 87.8302 17.2198H85.8555C85.8676 19.1473 86.9151 20.6267 88.6082 21.1509C89.0439 21.286 89.5234 21.3584 90.038 21.3584C90.5526 21.3584 91.0587 21.2872 91.5114 21.1509C93.099 20.677 94.1622 19.415 94.1622 17.6778C94.1622 15.107 92.3198 14.4857 90.345 13.8056Z" fill="black"/>
</g>
</g>
<path id="Vector_16" d="M6.68555 6.75977V42.3631H32.2843V6.75977H6.68555ZM20.8158 23.4676C21.5489 24.2103 21.5489 25.4172 20.8158 26.1587C20.4601 26.5184 19.988 26.7161 19.4855 26.7161C18.983 26.7161 18.5109 26.5184 18.1553 26.1587C17.4222 25.4172 17.4222 24.2103 18.1553 23.4676C18.2657 23.3558 18.3883 23.2589 18.5206 23.1791C18.5388 23.168 18.557 23.1582 18.5752 23.1471C18.8507 22.9924 19.1614 22.9102 19.4855 22.9102C19.8096 22.9102 20.1203 22.9924 20.3958 23.1471C20.414 23.1582 20.4322 23.168 20.4504 23.1791C20.5827 23.2589 20.7053 23.3558 20.8158 23.4676ZM14.9207 16.9153C14.9207 16.9153 14.9183 16.9165 14.917 16.9178C14.6512 17.0626 14.3466 17.1449 14.0237 17.1449C12.986 17.1449 12.1425 16.2916 12.1425 15.242C12.1425 14.1923 12.986 13.339 14.0237 13.339C15.0615 13.339 15.905 14.1923 15.905 15.242C15.905 15.9638 15.5069 16.5924 14.9207 16.9153ZM15.4244 18.6832C15.78 18.3235 16.2521 18.1258 16.7546 18.1258C17.2571 18.1258 17.7293 18.3235 18.0849 18.6832C18.818 19.4247 18.818 20.6328 18.0849 21.3743C17.9732 21.4873 17.8518 21.583 17.722 21.6616C17.6977 21.6739 17.6722 21.6886 17.6479 21.7034C16.9355 22.0913 16.0252 21.982 15.4244 21.3743C14.6913 20.6328 14.6913 19.4247 15.4244 18.6832ZM21.3231 21.7034C21.2988 21.6886 21.2733 21.6739 21.2491 21.6616C21.1192 21.583 20.9978 21.4873 20.8862 21.3743C20.1531 20.6328 20.1531 19.4247 20.8862 18.6832C21.2418 18.3235 21.7139 18.1258 22.2164 18.1258C22.7189 18.1258 23.191 18.3235 23.5466 18.6832C24.2797 19.4247 24.2797 20.6328 23.5466 21.3743C22.9459 21.982 22.0356 22.0913 21.3231 21.7034ZM24.054 16.9178C24.054 16.9178 24.0516 16.9153 24.0503 16.9153C23.4641 16.5924 23.066 15.9638 23.066 15.242C23.066 14.1923 23.9095 13.339 24.9473 13.339C25.985 13.339 26.8286 14.1923 26.8286 15.242C26.8286 16.2916 25.985 17.1449 24.9473 17.1449C24.6244 17.1449 24.3198 17.0626 24.054 16.9178ZM20.3825 16.9153C20.3825 16.9153 20.38 16.9165 20.3788 16.9178C20.113 17.0626 19.8084 17.1449 19.4855 17.1449C19.1627 17.1449 18.858 17.0626 18.5922 16.9178C18.591 16.9165 18.5898 16.9153 18.5886 16.9153C18.0023 16.5924 17.6042 15.9638 17.6042 15.242C17.6042 14.1923 18.4478 13.339 19.4855 13.339C20.5233 13.339 21.3668 14.1923 21.3668 15.242C21.3668 15.9638 20.9687 16.5924 20.3825 16.9153ZM8.38477 32.4875C9.4043 32.2825 10.459 32.1744 11.538 32.1744C13.7082 32.1744 15.7788 32.6103 17.671 33.3997C17.0241 33.8281 16.4063 34.2983 15.8225 34.8078C14.4704 34.3732 13.0309 34.1387 11.538 34.1387C10.4542 34.1387 9.39944 34.2615 8.38477 34.496V32.4875ZM8.38477 36.2651C9.39216 35.9987 10.4493 35.8575 11.538 35.8575C12.5211 35.8575 13.4776 35.9729 14.3951 36.1915C13.8902 36.7378 13.4181 37.316 12.9836 37.9225C12.5114 37.8562 12.0284 37.8219 11.538 37.8219C10.4408 37.8219 9.38124 37.9925 8.38477 38.3092V36.2651ZM11.538 39.5406C11.6728 39.5406 11.8075 39.5443 11.941 39.5505C11.7383 39.9077 11.5477 40.2723 11.3693 40.6443H8.38477V40.1275C9.36424 39.7481 10.4275 39.5406 11.538 39.5406ZM30.5851 40.6443H23.1728C23.2323 40.61 23.293 40.5768 23.3549 40.5449C23.9375 40.2392 24.5577 39.9961 25.207 39.8255C25.792 39.672 26.4001 39.5787 27.0252 39.5505C27.1587 39.5443 27.2934 39.5406 27.4294 39.5406C28.5411 39.5406 29.6044 39.7481 30.5851 40.1287V40.6443ZM30.5851 38.3092C29.5886 37.9925 28.529 37.8219 27.4294 37.8219C26.939 37.8219 26.4559 37.8562 25.9826 37.9225C25.3587 38.0085 24.7519 38.1509 24.1669 38.3449C23.5199 38.556 22.9009 38.831 22.3159 39.16C21.8147 39.4424 21.3377 39.7641 20.891 40.1226C20.6823 40.2883 20.4808 40.4626 20.2854 40.6443H17.6419C17.7814 40.4663 17.9259 40.292 18.0764 40.1226C18.5085 39.6278 18.9794 39.1674 19.4843 38.7475C19.9334 38.3719 20.4092 38.0269 20.908 37.7187C21.4942 37.3541 22.112 37.0374 22.7577 36.7746C23.3415 36.534 23.9484 36.3388 24.5722 36.1915C25.4898 35.9729 26.4462 35.8575 27.4294 35.8575C28.5193 35.8575 29.5764 35.9987 30.5851 36.2664V38.3092ZM30.5851 34.496C29.5692 34.2627 28.5132 34.1387 27.4294 34.1387C25.9365 34.1387 24.497 34.3732 23.1437 34.8078C22.521 35.0067 21.9154 35.2498 21.3328 35.531C20.6883 35.8416 20.0693 36.2013 19.4831 36.604C18.9855 36.944 18.5097 37.3173 18.0594 37.7187C17.5569 38.1644 17.086 38.6469 16.6515 39.16C16.2776 39.5996 15.9305 40.0624 15.6125 40.5461C15.5894 40.578 15.5688 40.6112 15.5482 40.6443H13.2822C13.4327 40.3669 13.5929 40.0931 13.7591 39.8255C14.0796 39.3123 14.4267 38.8175 14.8005 38.3449C15.235 37.7912 15.706 37.2657 16.2097 36.7746C16.66 36.3327 17.1357 35.9177 17.6346 35.531C18.2208 35.0779 18.8386 34.663 19.4843 34.2934C20.0669 33.9583 20.6713 33.6599 21.2952 33.3997C23.1874 32.6103 25.2592 32.1744 27.4294 32.1744C28.5096 32.1744 29.5643 32.2825 30.5851 32.4875V34.496ZM27.4294 30.4556C24.5759 30.4556 21.8778 31.1358 19.4831 32.3463C17.0896 31.1358 14.3903 30.4556 11.538 30.4556C10.4627 30.4556 9.40915 30.5526 8.38477 30.738V8.47855H18.6359V11.7234C17.8895 11.9075 17.2341 12.3286 16.7546 12.9044C16.0992 12.1187 15.1185 11.6202 14.0237 11.6202C12.049 11.6202 10.4432 13.2445 10.4432 15.242C10.4432 17.0197 11.7152 18.5015 13.3865 18.8047C12.9338 20.0828 13.213 21.5683 14.2228 22.5898C14.758 23.1312 15.4232 23.4651 16.1174 23.5903C15.6647 24.8684 15.9439 26.3527 16.9537 27.3741C17.6297 28.0592 18.5291 28.4348 19.4855 28.4348C20.4419 28.4348 21.3413 28.0592 22.0174 27.3741C23.0272 26.3527 23.3063 24.8684 22.8536 23.5903C23.0951 23.5474 23.333 23.4774 23.5636 23.3841C23.9957 23.2073 24.3987 22.9421 24.7482 22.5898C25.7581 21.5683 26.0372 20.0828 25.5845 18.8047C27.2558 18.5015 28.5278 17.0197 28.5278 15.242C28.5278 13.2445 26.922 11.6202 24.9473 11.6202C23.8525 11.6202 22.8718 12.1187 22.2164 12.9044C21.737 12.3286 21.0816 11.9075 20.3351 11.7234V8.47855H30.5851V30.738C29.5607 30.5526 28.5059 30.4556 27.4294 30.4556Z" fill="black"/>
</g>
</svg>
