<svg width="160" height="66" viewBox="0 0 160 66" fill="none" xmlns="http://www.w3.org/2000/svg">
<g id="Layer_1">
<g id="Group">
<g id="Group_2">
<path id="Vector" d="M132.783 49.2305C132.858 49.4318 132.937 49.6315 133.023 49.8279C132.939 49.6315 132.858 49.4318 132.783 49.2305ZM133.613 51.0278C133.668 51.1293 133.725 51.2324 133.788 51.3323C133.728 51.2324 133.67 51.131 133.613 51.0278Z" fill="#221504"/>
<path id="Vector_2" d="M151.006 58.7019L150.17 56.5149C150.17 56.5149 150.163 56.5182 150.16 56.5182C149.498 56.8128 148.655 57.1206 147.65 57.3366C146.575 57.5675 145.624 57.628 144.868 57.6231H144.85C144.603 57.6231 144.357 57.6149 144.112 57.6018C143.881 57.5887 143.653 57.5691 143.424 57.5445C143.42 57.5445 143.415 57.5445 143.41 57.5445C143.303 57.5331 143.196 57.52 143.09 57.5053C142.886 57.4774 142.683 57.4463 142.483 57.4103C142.479 57.4103 142.476 57.4103 142.473 57.4103C142.379 57.3923 142.284 57.3743 142.191 57.3547C141.248 57.1615 140.351 56.8685 139.51 56.4871C137.93 55.7734 136.543 54.7519 135.403 53.5095C135.276 53.3736 135.155 53.2345 135.035 53.0921C134.632 52.6141 134.263 52.1066 133.932 51.573C133.883 51.4977 133.838 51.4208 133.792 51.3438C133.792 51.3406 133.789 51.3389 133.788 51.3356C133.724 51.2358 133.668 51.1327 133.613 51.0312C133.554 50.9264 133.496 50.8216 133.441 50.7152C133.404 50.6432 133.368 50.5728 133.333 50.5008C133.297 50.4288 133.262 50.3584 133.228 50.2847C133.207 50.2405 133.185 50.1963 133.164 50.1505C133.118 50.0506 133.072 49.9492 133.029 49.8477C133.027 49.8428 133.025 49.8378 133.022 49.8313C132.936 49.6349 132.857 49.4352 132.783 49.2338C132.745 49.1323 132.708 49.0308 132.674 48.9293C132.639 48.8262 132.605 48.7247 132.572 48.6216C133.43 48.065 134.056 47.3137 134.474 46.4559C134.487 46.4314 134.498 46.4068 134.509 46.3823C134.936 45.4836 135.136 44.4654 135.136 43.4211C135.136 42.691 135.043 41.9707 134.839 41.2947C134.822 41.2374 134.804 41.1817 134.786 41.1261C134.491 40.2372 133.998 39.4286 133.273 38.782C133.265 38.7754 133.257 38.7672 133.249 38.7607C132.66 38.232 131.92 37.8113 131.01 37.5314C130.967 37.5183 130.923 37.5052 130.879 37.4921C130.096 37.2645 129.192 37.1401 128.154 37.1401H124.566V53.5095H127.267V49.6987H128.491C129.094 49.6987 129.64 49.6398 130.148 49.5612C130.154 49.5612 130.161 49.5612 130.167 49.5579C130.451 50.3797 130.93 51.5615 131.737 52.8793C131.737 52.8793 131.93 53.1968 132.143 53.5095C132.155 53.5275 132.168 53.5471 132.181 53.5652C132.923 54.6455 133.802 55.6293 134.796 56.4871C137.44 58.7772 140.91 60.1882 144.868 60.1915H144.887C147.098 60.1915 149.16 59.7479 151.006 58.9589C151.026 58.9523 151.043 58.9441 151.061 58.9376C151.071 58.9327 151.081 58.9294 151.09 58.9245L151.006 58.7051V58.7019ZM131.977 45.4361C131.977 45.4361 131.97 45.4476 131.967 45.4525C131.485 46.2268 130.682 46.762 129.575 46.9585C129.554 46.9618 129.533 46.9667 129.512 46.9683C129.219 47.019 128.905 47.0436 128.57 47.0436H127.267V39.8083H128.57C129.069 39.8083 129.527 39.8624 129.936 39.9671C129.975 39.9753 130.012 39.9868 130.049 39.9966C131.101 40.2929 131.833 40.9329 132.208 41.8398C132.213 41.8529 132.218 41.8643 132.223 41.8774C132.402 42.3276 132.496 42.8449 132.496 43.4178C132.496 44.1904 132.321 44.8779 131.977 45.4361Z" fill="#221504"/>
<path id="Vector_3" d="M63.4119 37.1582L59.1525 49.6153L54.754 37.1582H51.875L57.654 53.5063L57.6734 53.5619H60.6122L60.6316 53.5063L66.273 37.1582H63.4119Z" fill="#221504"/>
<path id="Vector_4" d="M68.4238 37.1582V53.5619H71.1458V37.1582H68.4238Z" fill="#221504"/>
<path id="Vector_5" d="M83.8532 37.1387V48.6185L77.3039 37.1583H74.5625V53.562H77.2845V42.0216L83.8597 53.5064L83.892 53.562H86.5736V37.1387H83.8532Z" fill="#221504"/>
<path id="Vector_6" d="M105.945 44.8994H96.5188V47.3106H102.77C102.12 49.5434 100.009 51.1377 97.5642 51.1377C94.1917 51.1377 91.8047 48.5268 91.8047 45.3184C91.8047 42.11 94.2111 39.4975 97.5836 39.4975C99.9302 39.4975 101.903 40.9724 102.573 43.0251H105.67C104.958 40.275 102.879 37.9915 100.065 37.1321C99.2893 36.8964 98.4575 36.7671 97.5836 36.7671C96.7098 36.7671 95.8634 36.8948 95.0818 37.1321C91.5182 38.2109 89.1426 41.5502 89.1426 45.2775C89.1426 49.0048 91.617 52.5013 95.3051 53.5064C96.022 53.7028 96.7842 53.8076 97.5836 53.8076C98.3831 53.8076 99.1307 53.7028 99.8428 53.5064C103.63 52.4686 106.178 48.8755 105.945 44.8994Z" fill="#221504"/>
<path id="Vector_7" d="M121.622 53.5065L115.825 37.9834C116.118 37.7493 116.358 37.4596 116.534 37.1322C116.766 36.7082 116.89 36.227 116.89 35.731C116.89 34.1972 115.688 32.8418 114.011 32.8418C112.335 32.8418 111.152 34.1972 111.152 35.731C111.152 36.2335 111.276 36.7131 111.503 37.1322C111.697 37.4956 111.967 37.8132 112.296 38.0636L106.4 53.5065V53.5098H109.239V53.5065L110.126 51.0969H117.976L118.842 53.5065V53.5098H121.624V53.5065H121.622ZM114.011 34.6555C114.623 34.6555 115.076 35.1139 115.076 35.731C115.076 36.3481 114.623 36.8081 114.011 36.8081C113.4 36.8081 112.946 36.3285 112.946 35.731C112.946 35.1335 113.419 34.6555 114.011 34.6555ZM110.993 48.7659L114.091 40.3357L117.128 48.7659H110.993Z" fill="#221504"/>
<path id="Vector_8" d="M151.007 43.9303C150.553 40.4125 148.227 37.5953 143.615 37.1321C143.176 37.0879 142.717 37.0649 142.236 37.0649H139.158V53.5096H142.236C142.337 53.5096 142.437 53.5096 142.536 53.5063C143.031 53.4965 143.5 53.4621 143.95 53.4032C144.109 53.3836 144.266 53.359 144.419 53.3328H144.423C146.034 53.0529 147.334 52.4587 148.342 51.6369C149.09 51.0296 149.679 50.2963 150.116 49.4746C150.58 48.5988 150.875 47.6232 151.007 46.5903C151.064 46.1565 151.092 45.7112 151.092 45.2594C151.092 44.8076 151.064 44.364 151.007 43.9303ZM142.532 50.7579H141.861V39.797H142.532C146.496 39.797 148.37 42.1476 148.37 45.2594C148.37 48.3713 146.496 50.7579 142.532 50.7579Z" fill="#221504"/>
</g>
<g id="Group_3">
<path id="Vector_9" d="M60.8841 11.9839H58.0763L51.875 28.201H54.6828L55.5599 25.8176H63.3213L64.179 28.201H66.9285L60.8841 11.9839ZM56.4176 23.5112L59.4794 15.1759L62.483 23.5112H56.4176Z" fill="#221504"/>
<path id="Vector_10" d="M77.5359 23.3149C79.2901 22.1723 80.0701 20.2211 80.0701 18.1716C80.0701 14.9403 78.2188 11.9644 73.1681 11.9644H69.6191V28.2208H72.2893V24.3789H73.4998C74.1035 24.3789 74.6504 24.3199 75.157 24.2397L77.0277 28.2011H80.2271L77.5359 23.3149ZM73.5775 21.7581H72.2893V14.6047H73.5775C76.0729 14.6047 77.4582 15.965 77.4582 18.1716C77.4582 20.3782 76.1118 21.7581 73.5775 21.7581Z" fill="#221504"/>
<path id="Vector_11" d="M83.459 11.9839V28.201H86.1502V11.9839H83.459Z" fill="#221504"/>
<path id="Vector_12" d="M92.0546 25.6197V11.9644H89.3828V28.2011H97.4161V25.6197H92.0546Z" fill="#221504"/>
<path id="Vector_13" d="M103.089 11.9448H100.047V28.2012H103.089C109.172 28.2012 111.844 24.4576 111.844 20.0444C111.844 15.6312 109.172 11.9448 103.089 11.9448ZM103.381 25.4823H102.719V14.6441H103.381C107.3 14.6441 109.153 16.9702 109.153 20.0444C109.153 23.1185 107.3 25.4823 103.381 25.4823Z" fill="#221504"/>
<path id="Vector_14" d="M120.461 18.4075C118.978 17.8951 117.849 17.4629 117.849 16.0634C117.849 14.9208 118.687 14.0925 120.012 14.0925C121.553 14.0925 122.333 15.1369 122.353 16.615L124.926 16.6543C124.908 13.6391 123.035 11.6289 120.012 11.6289C117.244 11.6289 115.216 13.5801 115.216 16.0241C115.216 18.6252 116.951 19.866 119.506 20.7139C121.456 21.3638 122.84 21.8368 122.84 23.5311C122.84 24.9699 121.728 25.9947 120.051 25.9947C118.159 25.9947 117.146 24.6736 117.108 22.9598H114.475C114.491 25.5298 115.887 27.5023 118.145 28.2012C118.726 28.3813 119.365 28.4779 120.051 28.4779C120.737 28.4779 121.412 28.3829 122.016 28.2012C124.133 27.5694 125.55 25.8866 125.55 23.5704C125.55 20.1426 123.094 19.3143 120.461 18.4075Z" fill="#221504"/>
</g>
</g>
<path id="Vector_15" d="M8.91406 9.0127V56.4838H43.0457V9.0127H8.91406ZM27.7543 31.2898C28.7318 32.2801 28.7318 33.8892 27.7543 34.8779C27.2802 35.3575 26.6507 35.6211 25.9807 35.6211C25.3107 35.6211 24.6812 35.3575 24.207 34.8779C23.2296 33.8892 23.2296 32.2801 24.207 31.2898C24.3543 31.1408 24.5177 31.0115 24.6941 30.9051C24.7184 30.8903 24.7427 30.8772 24.767 30.8625C25.1343 30.6563 25.5486 30.5466 25.9807 30.5466C26.4128 30.5466 26.8271 30.6563 27.1944 30.8625C27.2187 30.8772 27.243 30.8903 27.2672 30.9051C27.4436 31.0115 27.6071 31.1408 27.7543 31.2898ZM19.8942 22.5534C19.8942 22.5534 19.891 22.5551 19.8894 22.5567C19.535 22.7499 19.1288 22.8595 18.6983 22.8595C17.3147 22.8595 16.19 21.7219 16.19 20.3223C16.19 18.9227 17.3147 17.785 18.6983 17.785C20.082 17.785 21.2067 18.9227 21.2067 20.3223C21.2067 21.2848 20.6759 22.1229 19.8942 22.5534ZM20.5658 24.9106C21.04 24.431 21.6695 24.1674 22.3395 24.1674C23.0095 24.1674 23.639 24.431 24.1132 24.9106C25.0906 25.8993 25.0906 27.5101 24.1132 28.4988C23.9643 28.6494 23.8025 28.7771 23.6293 28.8818C23.5969 28.8982 23.5629 28.9178 23.5306 28.9375C22.5806 29.4548 21.3669 29.3091 20.5658 28.4988C19.5884 27.5101 19.5884 25.8993 20.5658 24.9106ZM28.4308 28.9375C28.3984 28.9178 28.3644 28.8982 28.3321 28.8818C28.1589 28.7771 27.9971 28.6494 27.8482 28.4988C26.8708 27.5101 26.8708 25.8993 27.8482 24.9106C28.3224 24.431 28.9519 24.1674 29.6219 24.1674C30.2918 24.1674 30.9214 24.431 31.3955 24.9106C32.373 25.8993 32.373 27.5101 31.3955 28.4988C30.5945 29.3091 29.3807 29.4548 28.4308 28.9375ZM32.072 22.5567C32.072 22.5567 32.0687 22.5534 32.0671 22.5534C31.2855 22.1229 30.7547 21.2848 30.7547 20.3223C30.7547 18.9227 31.8794 17.785 33.263 17.785C34.6467 17.785 35.7714 18.9227 35.7714 20.3223C35.7714 21.7219 34.6467 22.8595 33.263 22.8595C32.8326 22.8595 32.4264 22.7499 32.072 22.5567ZM27.1766 22.5534C27.1766 22.5534 27.1734 22.5551 27.1718 22.5567C26.8173 22.7499 26.4112 22.8595 25.9807 22.8595C25.5502 22.8595 25.144 22.7499 24.7896 22.5567C24.788 22.5551 24.7864 22.5534 24.7848 22.5534C24.0031 22.1229 23.4723 21.2848 23.4723 20.3223C23.4723 18.9227 24.597 17.785 25.9807 17.785C27.3643 17.785 28.4891 18.9227 28.4891 20.3223C28.4891 21.2848 27.9583 22.1229 27.1766 22.5534ZM11.1797 43.3163C12.5391 43.043 13.9454 42.8989 15.384 42.8989C18.2776 42.8989 21.0384 43.48 23.5613 44.5326C22.6988 45.1039 21.8751 45.7308 21.0966 46.4101C19.2939 45.8307 17.3746 45.518 15.384 45.518C13.9389 45.518 12.5326 45.6817 11.1797 45.9944V43.3163ZM11.1797 48.3532C12.5229 47.998 13.9324 47.8097 15.384 47.8097C16.6949 47.8097 17.9701 47.9636 19.1935 48.255C18.5203 48.9834 17.8908 49.7544 17.3114 50.563C16.6819 50.4746 16.0378 50.4288 15.384 50.4288C13.9211 50.4288 12.5083 50.6563 11.1797 51.0787V48.3532ZM15.384 52.7205C15.5637 52.7205 15.7433 52.7254 15.9213 52.7336C15.6511 53.21 15.397 53.6961 15.1591 54.1921H11.1797V53.503C12.4857 52.9972 13.9033 52.7205 15.384 52.7205ZM40.7801 54.1921H30.8971C30.9764 54.1463 31.0573 54.1021 31.1398 54.0595C31.9166 53.6519 32.7436 53.3278 33.6094 53.1003C34.3894 52.8957 35.2002 52.7713 36.0336 52.7336C36.2116 52.7254 36.3912 52.7205 36.5725 52.7205C38.0548 52.7205 39.4725 52.9972 40.7801 53.5046V54.1921ZM40.7801 51.0787C39.4514 50.6563 38.0387 50.4288 36.5725 50.4288C35.9187 50.4288 35.2746 50.4746 34.6435 50.563C33.8117 50.6776 33.0025 50.8675 32.2225 51.1261C31.3599 51.4077 30.5346 51.7744 29.7546 52.2131C29.0862 52.5896 28.4502 53.0184 27.8547 53.4964C27.5763 53.7174 27.3077 53.9499 27.0471 54.1921H23.5225C23.7086 53.9548 23.9012 53.7223 24.1018 53.4964C24.678 52.8367 25.3059 52.2229 25.9791 51.6631C26.5778 51.1622 27.2122 50.7022 27.8773 50.2913C28.659 49.8051 29.4827 49.3828 30.3436 49.0325C31.122 48.7117 31.9312 48.4514 32.763 48.255C33.9864 47.9636 35.2617 47.8097 36.5725 47.8097C38.0257 47.8097 39.4353 47.998 40.7801 48.3548V51.0787ZM40.7801 45.9944C39.4255 45.6833 38.0176 45.518 36.5725 45.518C34.582 45.518 32.6627 45.8307 30.8583 46.4101C30.0281 46.6753 29.2205 46.9994 28.4437 47.3743C27.5844 47.7884 26.7591 48.2681 25.9774 48.805C25.3139 49.2584 24.6796 49.756 24.0792 50.2913C23.4092 50.8855 22.7813 51.5288 22.2019 52.2131C21.7035 52.7991 21.2407 53.4162 20.8167 54.0612C20.7859 54.1037 20.7584 54.1479 20.7309 54.1921H17.7095C17.9102 53.8222 18.1238 53.4571 18.3455 53.1003C18.7728 52.416 19.2356 51.7564 19.734 51.1261C20.3134 50.3879 20.9413 49.6873 21.6129 49.0325C22.2133 48.4432 22.8477 47.8899 23.5128 47.3743C24.2944 46.7703 25.1181 46.217 25.9791 45.7243C26.7559 45.2774 27.5618 44.8796 28.3936 44.5326C30.9165 43.48 33.679 42.8989 36.5725 42.8989C38.0128 42.8989 39.4191 43.043 40.7801 43.3163V45.9944ZM36.5725 40.6072C32.7679 40.6072 29.1704 41.5141 25.9774 43.1281C22.7862 41.5141 19.1871 40.6072 15.384 40.6072C13.9502 40.6072 12.5455 40.7365 11.1797 40.9837V11.3044H24.8479V15.6308C23.8526 15.8764 22.9787 16.4378 22.3395 17.2056C21.4656 16.1579 20.158 15.4933 18.6983 15.4933C16.0653 15.4933 13.9243 17.659 13.9243 20.3223C13.9243 22.6926 15.6203 24.6683 17.8487 25.0727C17.2451 26.7767 17.6173 28.7574 18.9637 30.1193C19.6774 30.8412 20.5642 31.2865 21.4899 31.4534C20.8863 33.1575 21.2585 35.1366 22.6049 36.4985C23.5063 37.4119 24.7055 37.9128 25.9807 37.9128C27.2559 37.9128 28.4551 37.4119 29.3565 36.4985C30.7029 35.1366 31.0751 33.1575 30.4715 31.4534C30.7935 31.3962 31.1107 31.3029 31.4182 31.1784C31.9943 30.9427 32.5316 30.5891 32.9977 30.1193C34.3441 28.7574 34.7163 26.7767 34.1127 25.0727C36.3411 24.6683 38.037 22.6926 38.037 20.3223C38.037 17.659 35.896 15.4933 33.263 15.4933C31.8033 15.4933 30.4958 16.1579 29.6219 17.2056C28.9826 16.4378 28.1088 15.8764 27.1135 15.6308V11.3044H40.7801V40.9837C39.4142 40.7365 38.0079 40.6072 36.5725 40.6072Z" fill="#221504"/>
</g>
</svg>
