<svg width="1376" height="205" viewBox="0 0 1376 205" fill="none" xmlns="http://www.w3.org/2000/svg">
<g clip-path="url(#clip0_2109_16749)">
<path d="M1237.37 122.686C1237.94 124.193 1238.54 125.688 1239.19 127.158C1238.55 125.688 1237.94 124.193 1237.37 122.686ZM1243.66 136.14C1244.07 136.9 1244.5 137.672 1244.98 138.42C1244.53 137.672 1244.09 136.912 1243.66 136.14Z" fill="#FBF8F2"/>
<path d="M1375.36 193.586L1369.03 177.215C1369.03 177.215 1368.98 177.24 1368.95 177.24C1363.94 179.445 1357.56 181.749 1349.95 183.367C1341.81 185.094 1334.61 185.548 1328.88 185.511H1328.75C1326.87 185.511 1325.01 185.45 1323.16 185.352C1321.41 185.254 1319.68 185.107 1317.95 184.923C1317.92 184.923 1317.88 184.923 1317.84 184.923C1317.03 184.837 1316.23 184.739 1315.42 184.629C1313.87 184.42 1312.34 184.188 1310.82 183.918C1310.8 183.918 1310.77 183.918 1310.75 183.918C1310.04 183.783 1309.31 183.648 1308.62 183.501C1301.47 182.055 1294.68 179.862 1288.31 177.007C1276.35 171.664 1265.85 164.018 1257.21 154.717C1256.25 153.7 1255.34 152.658 1254.43 151.592C1251.38 148.014 1248.58 144.215 1246.07 140.221C1245.7 139.657 1245.36 139.081 1245.02 138.505C1245.01 138.481 1244.99 138.468 1244.98 138.444C1244.5 137.696 1244.07 136.924 1243.66 136.165C1243.22 135.38 1242.78 134.596 1242.36 133.8C1242.08 133.26 1241.81 132.734 1241.54 132.194C1241.27 131.655 1241 131.128 1240.74 130.577C1240.58 130.246 1240.42 129.915 1240.26 129.572C1239.91 128.825 1239.57 128.065 1239.23 127.305C1239.22 127.268 1239.21 127.232 1239.19 127.183C1238.54 125.712 1237.94 124.217 1237.37 122.71C1237.09 121.95 1236.81 121.19 1236.55 120.431C1236.28 119.659 1236.02 118.899 1235.78 118.127C1242.27 113.961 1247.02 108.336 1250.18 101.915C1250.27 101.731 1250.36 101.547 1250.45 101.364C1253.68 94.6362 1255.19 87.0143 1255.19 79.1963C1255.19 73.7311 1254.49 68.3394 1252.95 63.2786C1252.81 62.8497 1252.68 62.433 1252.54 62.0164C1250.31 55.3626 1246.57 49.3091 1241.08 44.4689C1241.02 44.4198 1240.96 44.3586 1240.9 44.3096C1236.44 40.3516 1230.84 37.2023 1223.95 35.1069C1223.62 35.0089 1223.29 34.9108 1222.96 34.8128C1217.03 33.1095 1210.18 32.1782 1202.33 32.1782H1175.16V154.717H1195.61V126.19H1204.87C1209.45 126.19 1213.57 125.749 1217.42 125.161C1217.47 125.161 1217.52 125.161 1217.57 125.136C1219.71 131.288 1223.34 140.135 1229.46 149.999C1229.46 149.999 1230.91 152.377 1232.53 154.717C1232.62 154.852 1232.72 154.999 1232.81 155.134C1238.44 163.221 1245.09 170.586 1252.62 177.007C1272.64 194.15 1298.91 204.713 1328.88 204.737H1329.03C1345.77 204.737 1361.38 201.417 1375.36 195.51C1375.51 195.461 1375.64 195.4 1375.78 195.351C1375.85 195.314 1375.93 195.29 1376 195.253L1375.36 193.611V193.586ZM1231.27 94.2809C1231.27 94.2809 1231.22 94.3666 1231.2 94.4034C1227.54 100.199 1221.47 104.207 1213.08 105.677C1212.93 105.701 1212.77 105.738 1212.61 105.751C1210.39 106.13 1208.01 106.314 1205.47 106.314H1195.61V52.152H1205.47C1209.25 52.152 1212.72 52.5564 1215.82 53.3407C1216.11 53.4019 1216.39 53.4877 1216.67 53.5612C1224.64 55.7792 1230.18 60.5705 1233.02 67.3591C1233.06 67.4571 1233.1 67.5429 1233.13 67.6409C1234.49 71.0108 1235.2 74.883 1235.2 79.1718C1235.2 84.9557 1233.88 90.1023 1231.27 94.2809Z" fill="#FBF8F2"/>
<path d="M712.085 32.313L679.833 125.565L646.527 32.313H624.727L668.486 154.692L668.633 155.109H690.886L691.033 154.692L733.75 32.313H712.085Z" fill="#FBF8F2"/>
<path d="M750.035 32.313V155.109H770.646V32.313H750.035Z" fill="#FBF8F2"/>
<path d="M866.876 32.166V118.102L817.284 32.3131H796.526V155.109H817.137V68.7193L866.925 154.693L867.17 155.109H887.475V32.166H866.876Z" fill="#FBF8F2"/>
<path d="M1034.15 90.2615H962.775V108.311H1010.11C1005.19 125.026 989.206 136.961 970.691 136.961C945.154 136.961 927.079 117.416 927.079 93.3985C927.079 69.3809 945.301 49.8237 970.838 49.8237C988.606 49.8237 1003.54 60.8645 1008.62 76.2308H1032.07C1026.68 55.6443 1010.93 38.5502 989.623 32.1169C983.753 30.3523 977.455 29.3843 970.838 29.3843C964.221 29.3843 957.812 30.3401 951.893 32.1169C924.91 40.1922 906.921 65.1901 906.921 93.0922C906.921 120.994 925.658 147.169 953.584 154.692C959.013 156.163 964.784 156.947 970.838 156.947C976.891 156.947 982.552 156.163 987.944 154.692C1016.62 146.923 1035.92 120.026 1034.15 90.2615Z" fill="#FBF8F2"/>
<path d="M1152.86 154.692L1108.96 38.4889C1111.18 36.7366 1112.99 34.5677 1114.33 32.1169C1116.08 28.9432 1117.03 25.3405 1117.03 21.6276C1117.03 10.1457 1107.92 -0.000488281 1095.23 -0.000488281C1082.53 -0.000488281 1073.57 10.1457 1073.57 21.6276C1073.57 25.3895 1074.52 28.9799 1076.23 32.1169C1077.7 34.8373 1079.75 37.2145 1082.24 39.0894L1037.6 154.692V154.717H1059.09V154.692L1065.81 136.655H1125.25L1131.8 154.692V154.717H1152.87V154.692H1152.86ZM1095.23 13.5768C1099.86 13.5768 1103.29 17.0079 1103.29 21.6276C1103.29 26.2473 1099.86 29.6907 1095.23 29.6907C1090.59 29.6907 1087.16 26.1003 1087.16 21.6276C1087.16 17.1549 1090.74 13.5768 1095.23 13.5768ZM1072.37 119.205L1095.83 56.0978L1118.83 119.205H1072.37Z" fill="#FBF8F2"/>
<path d="M1375.36 83.0075C1371.92 56.6739 1354.31 35.585 1319.39 32.1172C1316.07 31.7863 1312.59 31.6147 1308.95 31.6147H1285.64V154.717H1308.95C1309.71 154.717 1310.47 154.717 1311.21 154.693C1314.96 154.619 1318.52 154.362 1321.92 153.921C1323.12 153.774 1324.31 153.59 1325.48 153.394H1325.5C1337.71 151.298 1347.55 146.85 1355.18 140.699C1360.84 136.153 1365.3 130.663 1368.61 124.511C1372.13 117.956 1374.36 110.652 1375.36 102.92C1375.79 99.6728 1376 96.3397 1376 92.9576C1376 89.5756 1375.79 86.2548 1375.36 83.0075ZM1311.19 134.118H1306.1V52.0665H1311.19C1341.2 52.0665 1355.39 69.663 1355.39 92.9576C1355.39 116.252 1341.2 134.118 1311.19 134.118Z" fill="#FBF8F2"/>
<path d="M68.2173 32.3008H46.9569L0 153.7H21.2605L27.9021 135.858H86.6717L93.1662 153.7H113.986L68.2173 32.3008ZM34.3966 118.593L57.581 56.1958L80.3242 118.593H34.3966Z" fill="#FBF8F2"/>
<path d="M194.31 117.122C207.593 108.569 213.499 93.9624 213.499 78.6205C213.499 54.4314 199.481 32.1538 161.237 32.1538H134.364V153.847H154.583V125.087H163.749C168.319 125.087 172.461 124.646 176.297 124.046L190.462 153.7H214.688L194.31 117.122ZM164.337 105.469H154.583V51.9193H164.337C183.232 51.9193 193.722 62.1023 193.722 78.6205C193.722 95.1387 183.526 105.469 164.337 105.469Z" fill="#FBF8F2"/>
<path d="M239.159 32.3008V153.7H259.537V32.3008H239.159Z" fill="#FBF8F2"/>
<path d="M304.239 134.376V32.1538H284.008V153.7H344.837V134.376H304.239Z" fill="#FBF8F2"/>
<path d="M387.798 32.0068H364.761V153.7H387.798C433.861 153.7 454.092 125.675 454.092 92.639C454.092 59.6026 433.861 32.0068 387.798 32.0068ZM390.004 133.346H384.992V52.2135H390.004C419.683 52.2135 433.714 69.6262 433.714 92.639C433.714 115.652 419.683 133.346 390.004 133.346Z" fill="#FBF8F2"/>
<path d="M519.331 80.3849C508.107 76.5494 499.554 73.3144 499.554 62.8374C499.554 54.2841 505.901 48.0837 515.937 48.0837C527.603 48.0837 533.509 55.9017 533.656 66.9669L553.14 67.261C553.005 44.6894 538.827 29.6416 515.937 29.6416C494.971 29.6416 479.617 44.2482 479.617 62.5433C479.617 82.0147 492.753 91.3031 512.102 97.6506C526.868 102.515 537.345 106.057 537.345 118.74C537.345 129.511 528.926 137.182 516.231 137.182C501.906 137.182 494.236 127.293 493.941 114.463H474.004C474.127 133.702 484.702 148.467 501.796 153.7C506.195 155.048 511.036 155.771 516.231 155.771C521.427 155.771 526.537 155.06 531.107 153.7C547.136 148.97 557.87 136.373 557.87 119.034C557.87 93.374 539.269 87.1735 519.331 80.3849Z" fill="#FBF8F2"/>
</g>
<defs>
<clipPath id="clip0_2109_16749">
<rect width="1376" height="204.713" fill="white" transform="translate(0 -0.000488281)"/>
</clipPath>
</defs>
</svg>
