<?xml version="1.0" encoding="UTF-8"?>
<svg id="Layer_1" data-name="Layer 1" xmlns="http://www.w3.org/2000/svg" version="1.1" viewBox="0 0 48 70">
  <defs>
    <style>
      .cls-1 {
        fill: #010101;
        stroke-width: 0px;
      }
    </style>
  </defs>
  <path class="cls-1" d="M48,48V0c-7.97,0-15.94,0-23.91,0H0v46h0v24h48v-7.33h0v-2h0v-5.33h0v-2h0v-5.33h0ZM29,13.01c0,2.76-2.24,5-5,5s-5-2.24-5-5,2.24-5,5-5,5,2.24,5,5ZM17,20.01c2.76,0,5,2.24,5,5s-2.24,5-5,5-5-2.24-5-5,2.24-5,5-5ZM10,18.01c-2.76,0-5-2.24-5-5s2.24-5,5-5,5,2.24,5,5-2.24,5-5,5ZM21.21,19.42c.86.37,1.8.58,2.79.58s1.93-.21,2.79-.58c-1.69,1.27-2.79,3.29-2.79,5.58s1.1,4.31,2.79,5.58c-.86-.37-1.8-.58-2.79-.58s-1.93.21-2.79.58c1.69-1.27,2.79-3.29,2.79-5.58s-1.1-4.31-2.79-5.58ZM24,32.01c2.76,0,5,2.24,5,5s-2.24,5-5,5-5-2.24-5-5,2.24-5,5-5ZM26,25.01c0-2.76,2.24-5,5-5s5,2.24,5,5-2.24,5-5,5-5-2.24-5-5ZM33,13.01c0-2.76,2.24-5,5-5s5,2.24,5,5-2.24,5-5,5-5-2.24-5-5ZM33.79,18.59c-.86-.37-1.8-.58-2.79-.58s-1.93.21-2.79.58c1.69-1.27,2.79-3.29,2.79-5.58,0,2.29,1.1,4.31,2.79,5.58ZM2,2h21v4.09c-3.38.49-6,3.38-6,6.92,0,2.29,1.1,4.31,2.79,5.58-.86-.37-1.8-.58-2.79-.58s-1.93.21-2.79.58c1.69-1.27,2.79-3.29,2.79-5.58,0-3.88-3.15-7-7-7s-7,3.12-7,7,3.15,7,7,7c.99,0,1.93-.21,2.79-.58-1.69,1.27-2.79,3.29-2.79,5.58,0,3.88,3.15,7,7,7,.99,0,1.93-.21,2.79-.58-1.69,1.27-2.79,3.29-2.79,5.58,0,3.88,3.15,7,7,7s7-3.12,7-7c0-2.29-1.1-4.31-2.79-5.58.86.37,1.8.58,2.79.58,3.85,0,7-3.12,7-7,0-2.29-1.1-4.31-2.79-5.58.86.37,1.8.58,2.79.58,3.85,0,7-3.12,7-7s-3.15-7-7-7-7,3.12-7,7c0-3.54-2.62-6.43-6-6.92V2h21v44H2V2ZM46,68H2v-5.33h44v5.33ZM46,60.67H2v-5.33h44v5.33ZM46,48v5.33H2v-5.33h44Z"/>
</svg>