<?xml version="1.0" encoding="UTF-8"?>
<svg id="Layer_1" data-name="Layer 1" xmlns="http://www.w3.org/2000/svg" version="1.1" viewBox="0 0 48 70">
  <defs>
    <style>
      .cls-1 {
        fill: #010101;
        stroke-width: 0px;
      }
    </style>
  </defs>
  <path class="cls-1" d="M48,48V0H0v46h0v24h48v-7.33h0v-2h0v-5.33h0v-2h0v-5.33h0ZM35.41,46l-11.43-11.41-11.39,11.41H3.43l20.58-20.58,20.58,20.58h-9.18ZM32.58,46H15.42l8.57-8.58,8.59,8.58ZM21.58,25.01L2,44.59v-19.58h19.58ZM2,23.01V3.41l19.59,19.59H2ZM26.43,25.01h19.57v19.57s-19.57-19.57-19.57-19.57ZM26.42,23.01L46,3.42v19.58h-19.58ZM44.58,2.01l-19.57,19.58V2.01h19.57ZM23,2.01v19.58L3.43,2.01h19.57ZM2,2.01h0ZM46,68H2v-5.33h44v5.33ZM46,60.67H2v-5.33h44v5.33ZM46,53.33H2v-5.33h44v5.33Z"/>
</svg>