<svg width="114" height="167" viewBox="0 0 114 167" fill="none" xmlns="http://www.w3.org/2000/svg">
<path d="M113.829 114.144V0.314941H0V109.401V166.315H113.829V149.004V144.261V131.692V126.949V114.381V114.144ZM83.9486 109.401L56.9143 82.3664L29.88 109.401H8.06285L56.9143 60.5492L105.766 109.401H83.9486ZM77.3086 109.401H36.52L56.9143 89.0064L77.3086 109.401ZM51.2229 59.6007L4.74286 106.081V59.6007H51.2229ZM4.74286 54.8578V8.3778L51.2229 54.8578H4.74286ZM62.8429 59.6007H109.323V106.081L62.8429 59.6007ZM62.6057 54.8578L109.086 8.3778V54.8578H62.6057ZM105.766 5.0578L59.2857 51.5378V5.0578H105.766ZM54.5429 5.0578V51.5378L8.06285 5.0578H54.5429ZM109.086 161.572H4.74286V149.004H109.086V161.572ZM109.086 144.024H4.74286V131.455H109.086V144.024ZM109.086 126.712H4.74286V114.144H109.086V126.712Z" fill="#FBF8F2"/>
</svg>
