<svg width="178" height="259" viewBox="0 0 178 259" fill="none" xmlns="http://www.w3.org/2000/svg">
<path d="M177.6 177.6V0H0V170.2V259H177.6V231.99V224.59V204.98V197.58V177.97V177.6ZM130.98 170.2L88.8 128.02L46.62 170.2H12.58L88.8 93.98L165.02 170.2H130.98ZM120.62 170.2H56.98L88.8 138.38L120.62 170.2ZM79.92 92.5L7.4 165.02V92.5H79.92ZM7.4 85.1V12.58L79.92 85.1H7.4ZM98.05 92.5H170.57V165.02L98.05 92.5ZM97.68 85.1L170.2 12.58V85.1H97.68ZM165.02 7.4L92.5 79.92V7.4H165.02ZM85.1 7.4V79.92L12.58 7.4H85.1ZM170.2 251.6H7.4V231.99H170.2V251.6ZM170.2 224.22H7.4V204.61H170.2V224.22ZM170.2 197.21H7.4V177.6H170.2V197.21Z" fill="#FBF8F2"/>
</svg>
