<svg width="152" height="223" viewBox="0 0 152 223" fill="none" xmlns="http://www.w3.org/2000/svg">
<g id="Frame 685">
<g id="Group 45">
<g id="Group 42">
<path id="Vector" d="M94.3439 48.9372C94.3439 41.0749 100.589 34.7689 108.211 34.7689C115.832 34.7689 122.078 41.0749 122.078 48.9372C122.078 56.7996 115.832 63.1056 108.211 63.1056C100.589 63.1056 94.3438 56.7996 94.3439 48.9372Z" stroke="#FEF9F3" stroke-width="4.22038" stroke-miterlimit="10"/>
<path id="Vector_2" d="M62.4304 48.9372C62.4304 41.1123 68.7738 34.7689 76.5988 34.7689C84.4238 34.7689 90.7673 41.1123 90.7673 48.9372C90.7673 56.7622 84.4238 63.1056 76.5988 63.1056C68.7738 63.1056 62.4304 56.7622 62.4304 48.9372Z" stroke="#FEF9F3" stroke-width="4.22038" stroke-miterlimit="10"/>
<path id="Vector_3" d="M31.1183 48.9372C31.1183 41.0749 37.3637 34.7689 44.9852 34.7689C52.6068 34.7689 58.8522 41.0749 58.8522 48.9372C58.8522 56.7996 52.6068 63.1056 44.9852 63.1056C37.3637 63.1056 31.1183 56.7996 31.1183 48.9372Z" stroke="#FEF9F3" stroke-width="4.22038" stroke-miterlimit="10"/>
</g>
<g id="Group 43">
<path id="Vector_4" d="M78.7082 76.6711C78.7082 68.8461 85.0516 62.5027 92.8767 62.5027C100.702 62.5027 107.045 68.8461 107.045 76.6711C107.045 84.4961 100.702 90.8395 92.8767 90.8395C85.0516 90.8395 78.7082 84.4961 78.7082 76.6711Z" stroke="#FEF9F3" stroke-width="4.22038" stroke-miterlimit="10"/>
<path id="Vector_5" d="M46.754 76.6711C46.754 68.8088 52.9995 62.5027 60.621 62.5027C68.2425 62.5027 74.488 68.8088 74.488 76.6711C74.488 84.5335 68.2425 90.8395 60.621 90.8395C52.9995 90.8395 46.754 84.5335 46.754 76.6711Z" stroke="#FEF9F3" stroke-width="4.22038" stroke-miterlimit="10"/>
</g>
<g id="Group 44">
<path id="Vector_6" d="M63.0359 103.199C63.0359 95.3745 69.3793 89.0311 77.2043 89.0311C85.0293 89.0311 91.3727 95.3745 91.3727 103.199C91.3727 111.024 85.0293 117.368 77.2043 117.368C69.3793 117.368 63.0359 111.024 63.0359 103.199Z" stroke="#FEF9F3" stroke-width="4.22038" stroke-miterlimit="10"/>
</g>
<line id="Line 2" x1="76.4442" y1="20.9766" x2="76.4442" y2="33.8386" stroke="#FEF9F3" stroke-width="4.43633"/>
<rect id="Rectangle 43" x="21.7797" y="19.9794" width="108.75" height="162.127" stroke="#FEF9F3" stroke-width="4.43633"/>
<path id="Vector_7" d="M132.94 148.902H19.7539" stroke="#FEF9F3" stroke-width="4.73129" stroke-miterlimit="10"/>
<path id="Vector_8" d="M132.94 166.627H19.7539" stroke="#FEF9F3" stroke-width="4.73129" stroke-miterlimit="10"/>
<path id="Vector_9" d="M132.94 130.947H19.7539" stroke="#FEF9F3" stroke-width="4.73129" stroke-miterlimit="10"/>
</g>
</g>
</svg>
