<svg width="64" height="64" viewBox="0 0 64 64" fill="none" xmlns="http://www.w3.org/2000/svg">
<g id="symboler">
<path id="Vector" d="M0 -0.00195312V63.998H64V-0.00195312H0ZM61.3333 2.66471V6.59806C60.0133 6.63806 58.72 6.73137 57.44 6.86471C57.5734 5.47804 57.6534 4.07805 57.6934 2.66471H61.3333ZM61.3333 22.3581C58.52 22.4914 55.7867 22.9181 53.1467 23.5847C55.04 19.1847 56.3867 14.4781 57.1067 9.58472C58.5067 9.42472 59.9067 9.31806 61.3333 9.26473V22.3581ZM24.76 49.7714C20.2 51.9981 15.2933 53.6114 10.1333 54.4647C10.9733 49.2914 12.5467 44.3714 14.7334 39.8114C26.4134 35.6914 35.6533 26.3847 39.72 14.6781C44.28 12.4514 49.1867 10.8381 54.3467 9.98474C53.5067 15.1581 51.9333 20.0781 49.7467 24.6381C38.0667 28.7581 28.8267 38.0647 24.76 49.7714ZM47.8134 28.2914C43.1334 36.3447 36.4267 43.0914 28.4 47.8114C32.2134 39.1314 39.16 32.1447 47.8134 28.2914ZM2.66667 42.118C5.65333 42.0114 8.54667 41.5714 11.3333 40.8647C9.44 45.2647 8.09333 49.9714 7.37333 54.8647C5.82667 55.0514 4.25333 55.1581 2.66667 55.2114V42.118ZM16.6667 36.158C21.3467 28.1047 28.0533 21.3581 36.08 16.6381C32.2667 25.3181 25.32 32.3047 16.6667 36.158ZM55.0267 2.66471C54.9867 4.19805 54.88 5.71805 54.72 7.21139C49.8267 7.95805 45.1333 9.34473 40.7467 11.2647C41.4267 8.50473 41.84 5.62471 41.9333 2.66471H55.0267ZM39.2533 2.66471C39.1467 6.18471 38.5467 9.58472 37.5333 12.7981C26.9333 18.2514 18.2534 26.9714 12.8534 37.6247C9.62669 38.6781 6.21333 39.3047 2.66667 39.4381V26.3714C15.3467 25.6114 25.52 15.3714 26.2 2.66471H39.2533ZM2.66667 2.66471H23.52C22.8534 13.9047 13.88 22.9314 2.66667 23.6914V2.66471ZM2.66667 61.3314V57.8781C4.14667 57.8381 5.6 57.7314 7.04 57.5847C6.92 58.8247 6.84001 60.0647 6.80001 61.3314H2.66667ZM9.46667 61.3314C9.52001 59.958 9.61334 58.5847 9.76001 57.238C14.6533 56.4914 19.3467 55.1047 23.7334 53.1847C23.08 55.8114 22.68 58.5314 22.56 61.3314H9.46667ZM25.24 61.3314C25.3867 57.9714 25.9733 54.7314 26.9467 51.6514C37.5467 46.1981 46.2267 37.478 51.6267 26.8247C54.7067 25.8114 57.96 25.1981 61.3333 25.0247V38.118C49.0267 39.0914 39.1867 48.998 38.32 61.3314H25.24ZM61.3333 61.3314H41C41.8533 50.4647 50.4933 41.7581 61.3333 40.7981V61.3314Z" fill="#221504"/>
</g>
</svg>
