<svg width="33" height="33" viewBox="0 0 33 33" fill="none" xmlns="http://www.w3.org/2000/svg">
<g id="symboler">
<path id="Vector" d="M0.5 0.9375V32.9375H32.5V0.9375H0.5ZM31.1667 2.27083V4.23751C30.5067 4.25751 29.86 4.30416 29.22 4.37083C29.2867 3.6775 29.3267 2.9775 29.3467 2.27083H31.1667ZM31.1667 12.1175C29.76 12.1842 28.3933 12.3975 27.0733 12.7308C28.02 10.5308 28.6933 8.1775 29.0533 5.73083C29.7533 5.65084 30.4533 5.59751 31.1667 5.57084V12.1175ZM12.88 25.8242C10.6 26.9375 8.14667 27.7442 5.56667 28.1708C5.98667 25.5842 6.77335 23.1242 7.86668 20.8442C13.7067 18.7842 18.3267 14.1308 20.36 8.27751C22.64 7.16417 25.0933 6.35751 27.6733 5.93085C27.2533 8.51751 26.4667 10.9775 25.3733 13.2575C19.5333 15.3175 14.9133 19.9708 12.88 25.8242ZM24.4067 15.0842C22.0667 19.1108 18.7133 22.4842 14.7 24.8442C16.6067 20.5042 20.08 17.0108 24.4067 15.0842ZM1.83333 21.9975C3.32667 21.9442 4.77333 21.7242 6.16667 21.3708C5.22 23.5708 4.54667 25.9242 4.18667 28.3708C3.41333 28.4642 2.62667 28.5175 1.83333 28.5442V21.9975ZM8.83333 19.0175C11.1733 14.9908 14.5267 11.6175 18.54 9.25751C16.6333 13.5975 13.16 17.0908 8.83333 19.0175ZM28.0133 2.27083C27.9933 3.0375 27.94 3.7975 27.86 4.54417C25.4133 4.9175 23.0667 5.61084 20.8733 6.57084C21.2133 5.19084 21.42 3.75083 21.4667 2.27083H28.0133ZM20.1267 2.27083C20.0733 4.03083 19.7733 5.73084 19.2667 7.3375C13.9667 10.0642 9.62668 14.4242 6.92668 19.7508C5.31334 20.2775 3.60667 20.5908 1.83333 20.6575V14.1242C8.17333 13.7442 13.26 8.62417 13.6 2.27083H20.1267ZM1.83333 2.27083H12.26C11.9267 7.89083 7.44 12.4042 1.83333 12.7842V2.27083ZM1.83333 31.6042V29.8775C2.57333 29.8575 3.3 29.8042 4.02 29.7308C3.96 30.3508 3.92 30.9708 3.9 31.6042H1.83333ZM5.23334 31.6042C5.26 30.9175 5.30667 30.2308 5.38 29.5575C7.82667 29.1842 10.1733 28.4908 12.3667 27.5308C12.04 28.8442 11.84 30.2042 11.78 31.6042H5.23334ZM13.12 31.6042C13.1933 29.9242 13.4867 28.3042 13.9733 26.7642C19.2733 24.0375 23.6133 19.6775 26.3133 14.3508C27.8533 13.8442 29.48 13.5375 31.1667 13.4508V19.9975C25.0133 20.4842 20.0933 25.4375 19.66 31.6042H13.12ZM31.1667 31.6042H21C21.4267 26.1708 25.7467 21.8175 31.1667 21.3375V31.6042Z" fill="#221504"/>
</g>
</svg>
