<svg width="114" height="167" viewBox="0 0 114 167" fill="none" xmlns="http://www.w3.org/2000/svg">
<path id="Vector" d="M113.829 114.144V0.315186H0V109.401V166.315H113.829V149.004V144.261V131.692V126.949V114.381V114.144ZM68.7714 31.1438C68.7714 37.7838 63.5543 43.0009 56.9143 43.0009C50.2743 43.0009 45.0571 37.7838 45.0571 31.1438C45.0571 24.5038 50.2743 19.2866 56.9143 19.2866C63.5543 19.2866 68.7714 24.5038 68.7714 31.1438ZM40.3143 47.7438C46.9543 47.7438 52.1714 52.9609 52.1714 59.6009C52.1714 66.2409 46.9543 71.458 40.3143 71.458C33.6743 71.458 28.4571 66.2409 28.4571 59.6009C28.4571 52.9609 33.6743 47.7438 40.3143 47.7438ZM23.7143 43.0009C17.0743 43.0009 11.8571 37.7838 11.8571 31.1438C11.8571 24.5038 17.0743 19.2866 23.7143 19.2866C30.3543 19.2866 35.5714 24.5038 35.5714 31.1438C35.5714 37.7838 30.3543 43.0009 23.7143 43.0009ZM50.2743 46.3209C52.4086 47.2695 54.5429 47.7438 56.9143 47.7438C59.2857 47.7438 61.42 47.2695 63.5543 46.3209C59.5229 49.4038 56.9143 54.1466 56.9143 59.6009C56.9143 65.0552 59.5229 69.798 63.5543 72.8809C61.42 71.9323 59.2857 71.458 56.9143 71.458C54.5429 71.458 52.4086 71.9323 50.2743 72.8809C54.3057 69.798 56.9143 65.0552 56.9143 59.6009C56.9143 54.1466 54.3057 49.4038 50.2743 46.3209ZM56.9143 76.2009C63.5543 76.2009 68.7714 81.418 68.7714 88.058C68.7714 94.698 63.5543 99.9152 56.9143 99.9152C50.2743 99.9152 45.0571 94.698 45.0571 88.058C45.0571 81.418 50.2743 76.2009 56.9143 76.2009ZM61.6571 59.6009C61.6571 52.9609 66.8743 47.7438 73.5143 47.7438C80.1543 47.7438 85.3714 52.9609 85.3714 59.6009C85.3714 66.2409 80.1543 71.458 73.5143 71.458C66.8743 71.458 61.6571 66.2409 61.6571 59.6009ZM78.2571 31.1438C78.2571 24.5038 83.4743 19.2866 90.1143 19.2866C96.7543 19.2866 101.971 24.5038 101.971 31.1438C101.971 37.7838 96.7543 43.0009 90.1143 43.0009C83.4743 43.0009 78.2571 37.7838 78.2571 31.1438ZM80.1543 44.4238C78.02 43.4752 75.8857 43.0009 73.5143 43.0009C71.1429 43.0009 69.0086 43.4752 66.8743 44.4238C70.9057 41.3409 73.5143 36.598 73.5143 31.1438C73.5143 36.598 76.1229 41.3409 80.1543 44.4238ZM4.74286 5.05804H54.5429V14.7809C46.48 15.9666 40.3143 22.8438 40.3143 31.1438C40.3143 39.4438 42.9229 41.3409 46.9543 44.4238C44.82 43.4752 42.6857 43.0009 40.3143 43.0009C37.9429 43.0009 35.8086 43.4752 33.6743 44.4238C37.7057 41.3409 40.3143 36.598 40.3143 31.1438C40.3143 21.8952 32.9629 14.5438 23.7143 14.5438C14.4657 14.5438 7.11429 21.8952 7.11429 31.1438C7.11429 40.3923 14.4657 47.7438 23.7143 47.7438C32.9629 47.7438 28.22 47.2695 30.3543 46.3209C26.3229 49.4038 23.7143 54.1466 23.7143 59.6009C23.7143 68.8495 31.0657 76.2009 40.3143 76.2009C49.5629 76.2009 44.82 75.7266 46.9543 74.778C42.9229 77.8609 40.3143 82.6038 40.3143 88.058C40.3143 97.3066 47.6657 104.658 56.9143 104.658C66.1629 104.658 73.5143 97.3066 73.5143 88.058C73.5143 78.8095 70.9057 77.8609 66.8743 74.778C69.0086 75.7266 71.1429 76.2009 73.5143 76.2009C82.5257 76.2009 90.1143 68.8495 90.1143 59.6009C90.1143 50.3523 87.5057 49.4038 83.4743 46.3209C85.6086 47.2695 87.7429 47.7438 90.1143 47.7438C99.1257 47.7438 106.714 40.3923 106.714 31.1438C106.714 21.8952 99.1257 14.5438 90.1143 14.5438C81.1029 14.5438 73.5143 21.8952 73.5143 31.1438C73.5143 22.8438 67.3486 15.9666 59.2857 14.7809V5.05804H109.086V109.401H4.74286V5.05804ZM109.086 161.572H4.74286V149.004H109.086V161.572ZM109.086 144.261H4.74286V131.692H109.086V144.261ZM109.086 114.144V126.712H4.74286V114.144H109.086Z" fill="#FBF8F2"/>
</svg>
