<svg width="178" height="259" viewBox="0 0 178 259" fill="none" xmlns="http://www.w3.org/2000/svg">
<path d="M177.6 177.6V0H0V170.2V259H177.6V231.99V224.59V204.98V197.58V177.97V177.6ZM107.3 48.1C107.3 58.46 99.16 66.6 88.8 66.6C78.44 66.6 70.3 58.46 70.3 48.1C70.3 37.74 78.44 29.6 88.8 29.6C99.16 29.6 107.3 37.74 107.3 48.1ZM62.9 74C73.26 74 81.4 82.14 81.4 92.5C81.4 102.86 73.26 111 62.9 111C52.54 111 44.4 102.86 44.4 92.5C44.4 82.14 52.54 74 62.9 74ZM37 66.6C26.64 66.6 18.5 58.46 18.5 48.1C18.5 37.74 26.64 29.6 37 29.6C47.36 29.6 55.5 37.74 55.5 48.1C55.5 58.46 47.36 66.6 37 66.6ZM78.44 71.78C81.77 73.26 85.1 74 88.8 74C92.5 74 95.83 73.26 99.16 71.78C92.87 76.59 88.8 83.99 88.8 92.5C88.8 101.01 92.87 108.41 99.16 113.22C95.83 111.74 92.5 111 88.8 111C85.1 111 81.77 111.74 78.44 113.22C84.73 108.41 88.8 101.01 88.8 92.5C88.8 83.99 84.73 76.59 78.44 71.78ZM88.8 118.4C99.16 118.4 107.3 126.54 107.3 136.9C107.3 147.26 99.16 155.4 88.8 155.4C78.44 155.4 70.3 147.26 70.3 136.9C70.3 126.54 78.44 118.4 88.8 118.4ZM96.2 92.5C96.2 82.14 104.34 74 114.7 74C125.06 74 133.2 82.14 133.2 92.5C133.2 102.86 125.06 111 114.7 111C104.34 111 96.2 102.86 96.2 92.5ZM122.1 48.1C122.1 37.74 130.24 29.6 140.6 29.6C150.96 29.6 159.1 37.74 159.1 48.1C159.1 58.46 150.96 66.6 140.6 66.6C130.24 66.6 122.1 58.46 122.1 48.1ZM125.06 68.82C121.73 67.34 118.4 66.6 114.7 66.6C111 66.6 107.67 67.34 104.34 68.82C110.63 64.01 114.7 56.61 114.7 48.1C114.7 56.61 118.77 64.01 125.06 68.82ZM7.4 7.4H85.1V22.57C72.52 24.42 62.9 35.15 62.9 48.1C62.9 61.05 66.97 64.01 73.26 68.82C69.93 67.34 66.6 66.6 62.9 66.6C59.2 66.6 55.87 67.34 52.54 68.82C58.83 64.01 62.9 56.61 62.9 48.1C62.9 33.67 51.43 22.2 37 22.2C22.57 22.2 11.1 33.67 11.1 48.1C11.1 62.53 22.57 74 37 74C51.43 74 44.03 73.26 47.36 71.78C41.07 76.59 37 83.99 37 92.5C37 106.93 48.47 118.4 62.9 118.4C77.33 118.4 69.93 117.66 73.26 116.18C66.97 120.99 62.9 128.39 62.9 136.9C62.9 151.33 74.37 162.8 88.8 162.8C103.23 162.8 114.7 151.33 114.7 136.9C114.7 122.47 110.63 120.99 104.34 116.18C107.67 117.66 111 118.4 114.7 118.4C128.76 118.4 140.6 106.93 140.6 92.5C140.6 78.07 136.53 76.59 130.24 71.78C133.57 73.26 136.9 74 140.6 74C154.66 74 166.5 62.53 166.5 48.1C166.5 33.67 154.66 22.2 140.6 22.2C126.54 22.2 114.7 33.67 114.7 48.1C114.7 35.15 105.08 24.42 92.5 22.57V7.4H170.2V170.2H7.4V7.4ZM170.2 251.6H7.4V231.99H170.2V251.6ZM170.2 224.59H7.4V204.98H170.2V224.59ZM170.2 177.6V197.21H7.4V177.6H170.2Z" fill="#FBF8F2"/>
</svg>
