<svg width="16" height="16" viewBox="0 0 16 16" fill="none" xmlns="http://www.w3.org/2000/svg">
<g clip-path="url(#clip0_1852_6366)">
<path d="M8 14H6.5C4.55 14 3 12.45 3 10.5V8.5H4V10.5C4 11.9 5.1 13 6.5 13H8V14Z" fill="#221504"/>
<path d="M13.9999 15H15.0999L12.7999 9.5H11.6999L9.3999 15H10.4999L10.8999 14H13.5499L13.9999 15ZM11.3499 13L12.2499 10.8L13.1499 13H11.3499Z" fill="#221504"/>
<path d="M14 7.5H13V5.5C13 4.1 11.9 3 10.5 3H8.5V2H10.5C12.45 2 14 3.55 14 5.5V7.5Z" fill="#221504"/>
<path d="M7 2.5V1.5H4.5V0.5H3.5V1.5H1V2.5H5.1C5 2.95 4.7 3.75 4 4.5C3.7 4.15 3.45 3.8 3.3 3.5H2.15C2.35 4 2.7 4.6 3.2 5.15C2.8 5.5 2.2 5.8 1.5 6.05L1.85 7C2.75 6.65 3.45 6.25 4 5.85C4.55 6.3 5.25 6.7 6.15 7L6.5 6.05C5.8 5.8 5.2 5.45 4.75 5.15C5.7 4.15 6 3.1 6.1 2.5H7Z" fill="#221504"/>
</g>
<defs>
<clipPath id="clip0_1852_6366">
<rect width="16" height="16" fill="white"/>
</clipPath>
</defs>
</svg>
