<svg width="17" height="14" viewBox="0 0 17 14" fill="none" xmlns="http://www.w3.org/2000/svg">
<path id="&#226;&#128;&#157;" d="M3.83333 0.453125C5.83333 0.453125 7.38889 2.17535 7.38889 4.78646C7.38889 8.06424 6 11.0087 3.27778 13.6198L0.888889 11.7865C2.61111 10.0642 3.44444 8.39757 3.5 6.67535C1.88889 6.50868 0.5 5.2309 0.5 3.67535C0.5 1.89757 2 0.453125 3.83333 0.453125ZM12.9444 0.453125C14.9444 0.453125 16.5 2.17535 16.5 4.78646C16.5 8.06424 15.1111 11.0087 12.3889 13.6198L10 11.7865C11.7222 10.0642 12.5556 8.39757 12.6111 6.67535C11 6.50868 9.61111 5.2309 9.61111 3.67535C9.61111 1.89757 11.1111 0.453125 12.9444 0.453125Z" fill="#221504"/>
</svg>
