<svg width="24" height="21" viewBox="0 0 24 21" fill="none" xmlns="http://www.w3.org/2000/svg">
<path id="&#226;&#128;&#157;" d="M5 -0.00195312C8 -0.00195312 10.3333 2.64678 10.3333 6.6626C10.3333 11.7037 8.25 16.2322 4.16667 20.248L0.583334 17.4284C3.16667 14.7797 4.41667 12.2164 4.5 9.56767C2.08333 9.31134 0 7.34615 0 4.95374C0 2.21957 2.25 -0.00195312 5 -0.00195312ZM18.6667 -0.00195312C21.6667 -0.00195312 24 2.64678 24 6.6626C24 11.7037 21.9167 16.2322 17.8333 20.248L14.25 17.4284C16.8333 14.7797 18.0833 12.2164 18.1667 9.56767C15.75 9.31134 13.6667 7.34615 13.6667 4.95374C13.6667 2.21957 15.9167 -0.00195312 18.6667 -0.00195312Z" fill="#221504"/>
</svg>
